PathFileType	4	(X/Y/Z)	OpenSim_Sub10_EMGStiffKnee_Magnet.trc
DataRate	CameraRate	NumFrames	NumMarkers	Units	OrigDataRate	OrigDataStartFrame	OrigNumFrames
100	100	37	8	m	100	1	8371
Frame#	Time	torso_imu_offset_imu	pelvis_imu_offset_imu	tibia_r_imu_offset_imu	femur_r_imu_offset_imu	tibia_l_imu_offset_imu	femur_l_imu_offset_imu	toes_r_imu_offset_imu	toes_l_imu_offset_imu
				X1	Y1	Z1	X2	Y2	Z2	X3	Y3	Z3	X4	Y4	Z4	X5	Y5	Z5	X6	Y6	Z6	X7	Y7	Z7	X8		Y8	Z8	

1	0	-0.94946300	-0.07617200	0.01245100	-0.68237300	0.10522500	-0.64160200	-0.68969700	-0.56152300	-0.22241200	-0.71923800	-0.45434600	-0.00146500	-0.68994100	0.40307600	0.20898400	-0.71020500	0.28320300	0.35327100	-0.62622100	-0.26953100	-0.38061500	-0.70971700	-0.14526400	-0.39941400
2	0.01000000	-0.94506800	-0.08032200	0.01709000	-0.68261700	0.11157200	-0.63720700	-0.69799800	-0.56152300	-0.21557600	-0.71289100	-0.45410200	-0.01074200	-0.68310500	0.40112300	0.20678700	-0.71240200	0.28540000	0.36010700	-0.62841800	-0.26953100	-0.37646500	-0.70947300	-0.14746100	-0.39721700
3	0.02000000	-0.95166000	-0.07836900	0.01049800	-0.68261700	0.11157200	-0.63940400	-0.69580100	-0.56567400	-0.21997100	-0.72119100	-0.45849600	-0.00830100	-0.68554700	0.40332000	0.20434600	-0.71020500	0.28540000	0.35546900	-0.62841800	-0.26757800	-0.37670900	-0.70507800	-0.14721700	-0.39941400
4	0.03000000	-0.94091800	-0.07836900	0.01489300	-0.68457000	0.10522500	-0.63916000	-0.68994100	-0.55957000	-0.21582000	-0.71704100	-0.45629900	-0.01049800	-0.67871100	0.40551800	0.20190400	-0.70581100	0.28564500	0.35327100	-0.63256800	-0.26953100	-0.37451200	-0.70947300	-0.14746100	-0.39038100
5	0.04000000	-0.94506800	-0.08252000	0.01269500	-0.68017600	0.10302700	-0.64160200	-0.69384800	-0.56152300	-0.22021500	-0.71704100	-0.45629900	-0.01049800	-0.68310500	0.40332000	0.20434600	-0.71020500	0.28540000	0.35546900	-0.63037100	-0.27368200	-0.37866200	-0.71386700	-0.14965800	-0.39257800
6	0.05000000	-0.94287100	-0.08032200	0.01269500	-0.68457000	0.10522500	-0.64379900	-0.68969700	-0.56372100	-0.21997100	-0.71484400	-0.45629900	-0.00366200	-0.68335000	0.40771500	0.20410200	-0.71240200	0.28320300	0.36010700	-0.63256800	-0.27172900	-0.37866200	-0.70727500	-0.14526400	-0.39282200
7	0.06000000	-0.95166000	-0.07617200	0.01025400	-0.68652300	0.10302700	-0.64624000	-0.69189500	-0.56152300	-0.21777300	-0.71289100	-0.45825200	-0.00146500	-0.68310500	0.40332000	0.20654300	-0.70581100	0.28344700	0.36010700	-0.62622100	-0.26953100	-0.37451200	-0.71167000	-0.14746100	-0.40161100
8	0.07000000	-0.94531200	-0.07202100	0.01245100	-0.68896500	0.10522500	-0.64160200	-0.68969700	-0.56372100	-0.22216800	-0.72119100	-0.45629900	-0.00830100	-0.68750000	0.40087900	0.20898400	-0.71020500	0.28320300	0.35571300	-0.62426800	-0.26953100	-0.38061500	-0.71191400	-0.14306600	-0.39502000
9	0.08000000	-0.94506800	-0.07836900	0.00830100	-0.68457000	0.10717800	-0.63696300	-0.68969700	-0.56152300	-0.22021500	-0.72119100	-0.45849600	-0.00146500	-0.68554700	0.40527300	0.20874000	-0.71044900	0.28759800	0.34887700	-0.63256800	-0.26977500	-0.37036100	-0.70507800	-0.14502000	-0.39502000
10	0.09000000	-0.94726600	-0.07836900	0.01269500	-0.69116200	0.10937500	-0.63476600	-0.69189500	-0.55957000	-0.22021500	-0.71484400	-0.45629900	-0.00366200	-0.68554700	0.40771500	0.20434600	-0.70800800	0.28759800	0.35327100	-0.63452100	-0.27172900	-0.37646500	-0.71606400	-0.14965800	-0.39282200
11	0.10000000	-0.94506800	-0.07836900	0.01269500	-0.68261700	0.10717800	-0.64160200	-0.68969700	-0.56152300	-0.22460900	-0.72338900	-0.45849600	-0.00585900	-0.68335000	0.40771500	0.20654300	-0.70800800	0.28320300	0.35571300	-0.63256800	-0.26953100	-0.37646500	-0.71411100	-0.14526400	-0.39282200
12	0.11000000	-0.94287100	-0.08252000	0.01513700	-0.68457000	0.10717800	-0.63940400	-0.69409200	-0.55542000	-0.22485400	-0.71704100	-0.46044900	-0.00122100	-0.68554700	0.40551800	0.20434600	-0.70800800	0.28125000	0.36010700	-0.63061500	-0.26562500	-0.37866200	-0.70727500	-0.14746100	-0.39721700
13	0.12000000	-0.94726600	-0.08032200	0.01049800	-0.68701200	0.11157200	-0.64184600	-0.69189500	-0.55957000	-0.22680700	-0.72119100	-0.46044900	-0.00585900	-0.68530300	0.40087900	0.20678700	-0.71215800	0.27880900	0.35791000	-0.62841800	-0.26953100	-0.37451200	-0.71191400	-0.14306600	-0.39502000
14	0.13000000	-0.94726600	-0.08252000	0.01049800	-0.68481400	0.10937500	-0.63940400	-0.69189500	-0.55957000	-0.21801800	-0.71704100	-0.45410200	-0.00830100	-0.68798800	0.40991200	0.20190400	-0.70581100	0.28344700	0.36230500	-0.62646500	-0.26757800	-0.38085900	-0.71191400	-0.14306600	-0.39282200
15	0.14000000	-0.94506800	-0.08032200	0.00830100	-0.68676800	0.10937500	-0.63696300	-0.69384800	-0.56152300	-0.22021500	-0.71289100	-0.45825200	-0.00830100	-0.68310500	0.40332000	0.20434600	-0.71435500	0.27880900	0.35791000	-0.63061500	-0.26757800	-0.37036100	-0.71167000	-0.14746100	-0.39282200
16	0.15000000	-0.94531200	-0.07617200	0.01025400	-0.68261700	0.11157200	-0.63476600	-0.69384800	-0.56152300	-0.22460900	-0.71923800	-0.45629900	-0.00830100	-0.68090800	0.40112300	0.20459000	-0.70800800	0.28320300	0.35571300	-0.62841800	-0.26757800	-0.37231400	-0.70947300	-0.15185500	-0.39721700
17	0.16000000	-0.94946300	-0.07421900	0.01245100	-0.68237300	0.10302700	-0.63671900	-0.69604500	-0.56152300	-0.21801800	-0.71484400	-0.45629900	-0.01293900	-0.68994100	0.40087900	0.20459000	-0.71020500	0.28100600	0.35791000	-0.63256800	-0.26953100	-0.37451200	-0.70971700	-0.14502000	-0.40161100
18	0.17000000	-0.94287100	-0.08032200	0.01049800	-0.68896500	0.10937500	-0.63940400	-0.69409200	-0.55957000	-0.22021500	-0.71484400	-0.45629900	-0.01049800	-0.68530300	0.40112300	0.20459000	-0.70800800	0.28320300	0.35791000	-0.62841800	-0.26953100	-0.37231400	-0.70727500	-0.14746100	-0.39721700
19	0.18000000	-0.94506800	-0.08032200	0.00830100	-0.68481400	0.10937500	-0.63696300	-0.69384800	-0.56372100	-0.21337900	-0.71484400	-0.46044900	-0.01049800	-0.68310500	0.40112300	0.20678700	-0.71020500	0.28540000	0.34887700	-0.63061500	-0.26342800	-0.37670900	-0.71191400	-0.14306600	-0.39282200
20	0.19000000	-0.94287100	-0.08032200	0.00830100	-0.68481400	0.11352500	-0.64428700	-0.69213900	-0.55542000	-0.21801800	-0.72119100	-0.45434600	-0.00610400	-0.68554700	0.40527300	0.20654300	-0.71240200	0.28100600	0.35327100	-0.63061500	-0.26757800	-0.37231400	-0.70971700	-0.14306600	-0.38818400
21	0.20000000	-0.94726600	-0.08032200	0.01049800	-0.68481400	0.11352500	-0.63964800	-0.69604500	-0.56152300	-0.21801800	-0.71923800	-0.45629900	-0.01049800	-0.68090800	0.40087900	0.20898400	-0.70996100	0.27905300	0.35351600	-0.62841800	-0.26562500	-0.37255900	-0.70727500	-0.14526400	-0.39502000
22	0.21000000	-0.94726600	-0.08032200	0.01489300	-0.68481400	0.10937500	-0.64184600	-0.68969700	-0.56152300	-0.22021500	-0.71508800	-0.45410200	-0.00830100	-0.68554700	0.40527300	0.20654300	-0.70800800	0.28540000	0.35546900	-0.63476600	-0.26367200	-0.37670900	-0.70727500	-0.14526400	-0.39282200
23	0.22000000	-0.94726600	-0.08032200	0.00610400	-0.68676800	0.10717800	-0.63696300	-0.69604500	-0.56152300	-0.22241200	-0.71899400	-0.45849600	-0.00146500	-0.68530300	0.40087900	0.20678700	-0.71020500	0.28100600	0.35791000	-0.63037100	-0.26953100	-0.37646500	-0.70507800	-0.14526400	-0.39257800
24	0.23000000	-0.94287100	-0.08032200	0.01049800	-0.68237300	0.10522500	-0.63696300	-0.70019500	-0.56372100	-0.21997100	-0.71704100	-0.45825200	-0.00830100	-0.68090800	0.39868200	0.20898400	-0.71020500	0.28320300	0.35327100	-0.63037100	-0.26953100	-0.37866200	-0.70727500	-0.14965800	-0.39502000
25	0.24000000	-0.94726600	-0.08252000	0.00390600	-0.68676800	0.10717800	-0.63696300	-0.69604500	-0.55737300	-0.22021500	-0.71899400	-0.45825200	-0.01049800	-0.68774400	0.40307600	0.20678700	-0.70800800	0.28125000	0.35571300	-0.63037100	-0.26953100	-0.37866200	-0.70922900	-0.15405300	-0.39502000
26	0.25000000	-0.94287100	-0.08252000	0.01049800	-0.68896500	0.11132800	-0.63720700	-0.69409200	-0.55957000	-0.22460900	-0.71704100	-0.45825200	-0.00830100	-0.67871100	0.40332000	0.20434600	-0.70800800	0.28125000	0.34887700	-0.63452100	-0.27172900	-0.37036100	-0.70971700	-0.14526400	-0.39941400
27	0.26000000	-0.94726600	-0.08032200	0.01049800	-0.68237300	0.10302700	-0.63916000	-0.69409200	-0.55957000	-0.22680700	-0.71484400	-0.45825200	-0.00830100	-0.68530300	0.40112300	0.20239300	-0.70581100	0.28344700	0.35791000	-0.63061500	-0.26757800	-0.37866200	-0.70947300	-0.14746100	-0.39941400
28	0.27000000	-0.94287100	-0.08252000	0.01049800	-0.68457000	0.10717800	-0.63696300	-0.69409200	-0.55737300	-0.22241200	-0.71704100	-0.45825200	-0.00830100	-0.68750000	0.39868200	0.20703100	-0.71020500	0.28100600	0.35571300	-0.62841800	-0.26953100	-0.37866200	-0.70752000	-0.14282200	-0.39721700
29	0.28000000	-0.94946300	-0.07836900	0.01709000	-0.68481400	0.10937500	-0.64184600	-0.69409200	-0.55542000	-0.22045900	-0.72314500	-0.45849600	-0.01049800	-0.68310500	0.40332000	0.20434600	-0.71020500	0.28540000	0.36010700	-0.62841800	-0.26953100	-0.37866200	-0.70971700	-0.14306600	-0.39282200
30	0.29000000	-0.94726600	-0.07836900	0.00830100	-0.69116200	0.10937500	-0.63696300	-0.69384800	-0.56372100	-0.22241200	-0.71899400	-0.46240200	-0.01489300	-0.68774400	0.40307600	0.20459000	-0.70800800	0.28320300	0.35107400	-0.62841800	-0.26562500	-0.37451200	-0.70947300	-0.14746100	-0.39038100
31	0.30000000	-0.95166000	-0.07836900	0.01269500	-0.68261700	0.10717800	-0.63476600	-0.69213900	-0.55542000	-0.21582000	-0.71923800	-0.45629900	-0.00610400	-0.68310500	0.40332000	0.20214800	-0.71240200	0.28100600	0.35791000	-0.62622100	-0.26953100	-0.37646500	-0.70947300	-0.14965800	-0.39721700
32	0.31000000	-0.94506800	-0.08252000	0.01049800	-0.68261700	0.10717800	-0.64160200	-0.68994100	-0.55737300	-0.22241200	-0.71289100	-0.45629900	-0.00366200	-0.68090800	0.40332000	0.20654300	-0.70800800	0.28540000	0.36450200	-0.63256800	-0.26562500	-0.37451200	-0.71191400	-0.14526400	-0.39038100
33	0.32000000	-0.94726600	-0.08252000	0.01489300	-0.68481400	0.10937500	-0.64404300	-0.69409200	-0.55542000	-0.22485400	-0.71679700	-0.46044900	-0.01049800	-0.68090800	0.40332000	0.20654300	-0.71020500	0.28320300	0.35571300	-0.62841800	-0.26757800	-0.37231400	-0.70507800	-0.14721700	-0.39721700
34	0.33000000	-0.94726600	-0.08252000	0.01269500	-0.68261700	0.10937500	-0.63476600	-0.68969700	-0.56372100	-0.21557600	-0.71899400	-0.45825200	-0.00585900	-0.68554700	0.40551800	0.20434600	-0.70776400	0.27905300	0.35791000	-0.62841800	-0.26562500	-0.37451200	-0.70752000	-0.13842800	-0.39721700
35	0.34000000	-0.94287100	-0.08252000	0.00830100	-0.68457000	0.10717800	-0.64160200	-0.69189500	-0.55737300	-0.22705100	-0.71484400	-0.45629900	-0.01049800	-0.68310500	0.40332000	0.20654300	-0.71020500	0.28320300	0.36010700	-0.63256800	-0.26562500	-0.37670900	-0.70971700	-0.14526400	-0.39502000
36	0.35000000	-0.94506800	-0.08471700	0.01733400	-0.68261700	0.10937500	-0.64184600	-0.69409200	-0.55957000	-0.21582000	-0.71704100	-0.45629900	-0.00610400	-0.68310500	0.40112300	0.20239300	-0.71460000	0.28540000	0.35107400	-0.62841800	-0.26562500	-0.37451200	-0.71167000	-0.14965800	-0.38818400
37	0.36000000	-0.94506800	-0.08471700	0.01293900	-0.69116200	0.10717800	-0.63696300	-0.69165000	-0.56372100	-0.21997100	-0.71679700	-0.46044900	-0.01049800	-0.68310500	0.40332000	0.20654300	-0.71215800	0.27880900	0.35351600	-0.63037100	-0.27148400	-0.38476600	-0.71191400	-0.14306600	-0.39282200
